<?xml version="1.0" encoding="UTF-8" standalone="no"?><!DOCTYPE svg PUBLIC "-//W3C//DTD SVG 1.1//EN" "http://www.w3.org/Graphics/SVG/1.1/DTD/svg11.dtd"><svg width="1024px" height="1024px" version="1.1" xmlns="http://www.w3.org/2000/svg" xmlns:xlink="http://www.w3.org/1999/xlink" xml:space="preserve" xmlns:serif="http://www.serif.com/" style="fill-rule:evenodd;clip-rule:evenodd;stroke-linecap:round;stroke-linejoin:round;stroke-miterlimit:1.5;"><g id="breadcrumbspress"><rect x="0" y="0" width="1024" height="1024" style="fill:rgb(255,0,0);stroke:rgb(35,177,0);stroke-width:1px;"/><g><path d="M569.829,64L697.829,64L825.829,384L697.829,704L569.829,704L697.829,384L569.829,64Z" style="fill:white;fill-rule:nonzero;"/><path d="M384,109.714L512,109.714L640,384L512,658.286L384,658.286L512,384L384,109.714Z" style="fill:white;fill-rule:nonzero;"/><path d="M198.171,155.429L326.171,155.429L454.171,384L326.171,612.571L198.171,612.571L326.171,384L198.171,155.429Z" style="fill:white;fill-rule:nonzero;"/></g><g transform="matrix(1,0,0,1,45.7577,85.6171)"><g transform="matrix(112,0,0,112,32.9703,760.815)"><path d="M0.047,-0L0.047,-0.075L0.145,-0.075L0.145,-0.625L0.047,-0.625L0.047,-0.7L0.398,-0.7C0.439,-0.7 0.475,-0.693 0.506,-0.678C0.538,-0.663 0.563,-0.643 0.581,-0.617C0.598,-0.59 0.607,-0.559 0.607,-0.524L0.607,-0.516C0.607,-0.483 0.601,-0.457 0.588,-0.436C0.575,-0.414 0.56,-0.398 0.543,-0.387C0.526,-0.375 0.509,-0.366 0.492,-0.361L0.492,-0.347C0.509,-0.343 0.526,-0.335 0.544,-0.324C0.562,-0.312 0.577,-0.295 0.59,-0.274C0.602,-0.253 0.608,-0.226 0.608,-0.193L0.608,-0.183C0.608,-0.145 0.599,-0.112 0.581,-0.085C0.562,-0.057 0.537,-0.036 0.505,-0.021C0.474,-0.007 0.438,-0 0.397,-0L0.047,-0ZM0.229,-0.076L0.388,-0.076C0.432,-0.076 0.466,-0.086 0.489,-0.107C0.512,-0.128 0.524,-0.156 0.524,-0.191L0.524,-0.2C0.524,-0.235 0.512,-0.263 0.489,-0.284C0.466,-0.305 0.432,-0.315 0.388,-0.315L0.229,-0.315L0.229,-0.076ZM0.229,-0.391L0.391,-0.391C0.431,-0.391 0.463,-0.401 0.487,-0.422C0.511,-0.442 0.523,-0.469 0.523,-0.502L0.523,-0.512C0.523,-0.546 0.511,-0.573 0.488,-0.594C0.464,-0.614 0.432,-0.624 0.391,-0.624L0.229,-0.624L0.229,-0.391Z" style="fill:white;fill-rule:nonzero;"/></g><g transform="matrix(112,0,0,112,112.602,760.815)"><path d="M0.08,-0L0.08,-0.7L0.363,-0.7C0.406,-0.7 0.445,-0.693 0.477,-0.678C0.51,-0.663 0.536,-0.641 0.555,-0.614C0.574,-0.586 0.583,-0.553 0.583,-0.514L0.583,-0.503C0.583,-0.457 0.572,-0.421 0.55,-0.394C0.528,-0.367 0.502,-0.349 0.472,-0.34L0.472,-0.326C0.496,-0.325 0.516,-0.318 0.532,-0.303C0.547,-0.288 0.555,-0.265 0.555,-0.235L0.555,-0L0.472,-0L0.472,-0.225C0.472,-0.245 0.467,-0.26 0.456,-0.271C0.445,-0.282 0.428,-0.287 0.406,-0.287L0.164,-0.287L0.164,-0L0.08,-0ZM0.164,-0.363L0.355,-0.363C0.401,-0.363 0.437,-0.374 0.462,-0.397C0.487,-0.419 0.499,-0.45 0.499,-0.49L0.499,-0.497C0.499,-0.537 0.487,-0.568 0.462,-0.591C0.437,-0.613 0.402,-0.624 0.355,-0.624L0.164,-0.624L0.164,-0.363Z" style="fill:white;fill-rule:nonzero;"/></g><g transform="matrix(112,0,0,112,188.874,760.815)"><path d="M0.08,-0L0.08,-0.7L0.511,-0.7L0.511,-0.624L0.164,-0.624L0.164,-0.39L0.483,-0.39L0.483,-0.314L0.164,-0.314L0.164,-0.076L0.516,-0.076L0.516,-0L0.08,-0Z" style="fill:white;fill-rule:nonzero;"/></g><g transform="matrix(112,0,0,112,257.53,760.815)"><path d="M0.025,-0L0.241,-0.7L0.389,-0.7L0.605,-0L0.518,-0L0.464,-0.177L0.166,-0.177L0.112,-0L0.025,-0ZM0.187,-0.253L0.442,-0.253L0.322,-0.649L0.308,-0.649L0.187,-0.253Z" style="fill:white;fill-rule:nonzero;"/></g><g transform="matrix(112,0,0,112,333.69,760.815)"><path d="M0.047,-0L0.047,-0.075L0.145,-0.075L0.145,-0.625L0.047,-0.625L0.047,-0.7L0.32,-0.7C0.412,-0.7 0.483,-0.677 0.534,-0.63C0.584,-0.583 0.609,-0.512 0.609,-0.415L0.609,-0.285C0.609,-0.188 0.584,-0.116 0.534,-0.07C0.483,-0.023 0.412,-0 0.32,-0L0.047,-0ZM0.229,-0.076L0.32,-0.076C0.388,-0.076 0.439,-0.093 0.474,-0.126C0.509,-0.159 0.526,-0.211 0.526,-0.281L0.526,-0.418C0.526,-0.489 0.509,-0.541 0.474,-0.574C0.439,-0.607 0.388,-0.623 0.32,-0.623L0.229,-0.623L0.229,-0.076Z" style="fill:white;fill-rule:nonzero;"/></g><g transform="matrix(112,0,0,112,413.546,760.815)"><path d="M0.333,0.014C0.25,0.014 0.183,-0.01 0.134,-0.059C0.085,-0.107 0.06,-0.177 0.06,-0.27L0.06,-0.43C0.06,-0.523 0.085,-0.593 0.134,-0.642C0.183,-0.69 0.25,-0.714 0.333,-0.714C0.416,-0.714 0.479,-0.691 0.524,-0.645C0.568,-0.599 0.59,-0.536 0.59,-0.456L0.59,-0.451L0.507,-0.451L0.507,-0.459C0.507,-0.512 0.493,-0.555 0.465,-0.589C0.436,-0.622 0.392,-0.639 0.333,-0.639C0.274,-0.639 0.227,-0.621 0.194,-0.585C0.161,-0.548 0.144,-0.497 0.144,-0.432L0.144,-0.268C0.144,-0.203 0.161,-0.152 0.194,-0.116C0.227,-0.079 0.274,-0.061 0.333,-0.061C0.392,-0.061 0.436,-0.078 0.465,-0.112C0.493,-0.145 0.507,-0.188 0.507,-0.241L0.507,-0.257L0.59,-0.257L0.59,-0.244C0.59,-0.164 0.568,-0.101 0.524,-0.055C0.479,-0.009 0.416,0.014 0.333,0.014Z" style="fill:white;fill-rule:nonzero;"/></g><g transform="matrix(112,0,0,112,491.05,760.815)"><path d="M0.08,-0L0.08,-0.7L0.363,-0.7C0.406,-0.7 0.445,-0.693 0.477,-0.678C0.51,-0.663 0.536,-0.641 0.555,-0.614C0.574,-0.586 0.583,-0.553 0.583,-0.514L0.583,-0.503C0.583,-0.457 0.572,-0.421 0.55,-0.394C0.528,-0.367 0.502,-0.349 0.472,-0.34L0.472,-0.326C0.496,-0.325 0.516,-0.318 0.532,-0.303C0.547,-0.288 0.555,-0.265 0.555,-0.235L0.555,-0L0.472,-0L0.472,-0.225C0.472,-0.245 0.467,-0.26 0.456,-0.271C0.445,-0.282 0.428,-0.287 0.406,-0.287L0.164,-0.287L0.164,-0L0.08,-0ZM0.164,-0.363L0.355,-0.363C0.401,-0.363 0.437,-0.374 0.462,-0.397C0.487,-0.419 0.499,-0.45 0.499,-0.49L0.499,-0.497C0.499,-0.537 0.487,-0.568 0.462,-0.591C0.437,-0.613 0.402,-0.624 0.355,-0.624L0.164,-0.624L0.164,-0.363Z" style="fill:white;fill-rule:nonzero;"/></g><g transform="matrix(112,0,0,112,567.322,760.815)"><path d="M0.333,0.014C0.281,0.014 0.236,0.005 0.197,-0.014C0.158,-0.033 0.128,-0.061 0.107,-0.098C0.086,-0.135 0.075,-0.18 0.075,-0.234L0.075,-0.7L0.158,-0.7L0.158,-0.233C0.158,-0.176 0.173,-0.133 0.204,-0.104C0.235,-0.075 0.278,-0.061 0.333,-0.061C0.388,-0.061 0.431,-0.075 0.462,-0.104C0.493,-0.133 0.508,-0.176 0.508,-0.233L0.508,-0.7L0.592,-0.7L0.592,-0.234C0.592,-0.18 0.581,-0.135 0.56,-0.098C0.539,-0.061 0.508,-0.033 0.469,-0.014C0.431,0.005 0.385,0.014 0.333,0.014Z" style="fill:white;fill-rule:nonzero;"/></g><g transform="matrix(112,0,0,112,647.514,760.815)"><path d="M0.08,-0L0.08,-0.7L0.24,-0.7L0.426,-0.053L0.439,-0.053L0.625,-0.7L0.785,-0.7L0.785,-0L0.704,-0L0.704,-0.645L0.69,-0.645L0.505,-0L0.36,-0L0.175,-0.645L0.161,-0.645L0.161,-0L0.08,-0Z" style="fill:white;fill-rule:nonzero;"/></g><g transform="matrix(112,0,0,112,749.994,760.815)"><path d="M0.047,-0L0.047,-0.075L0.145,-0.075L0.145,-0.625L0.047,-0.625L0.047,-0.7L0.398,-0.7C0.439,-0.7 0.475,-0.693 0.506,-0.678C0.538,-0.663 0.563,-0.643 0.581,-0.617C0.598,-0.59 0.607,-0.559 0.607,-0.524L0.607,-0.516C0.607,-0.483 0.601,-0.457 0.588,-0.436C0.575,-0.414 0.56,-0.398 0.543,-0.387C0.526,-0.375 0.509,-0.366 0.492,-0.361L0.492,-0.347C0.509,-0.343 0.526,-0.335 0.544,-0.324C0.562,-0.312 0.577,-0.295 0.59,-0.274C0.602,-0.253 0.608,-0.226 0.608,-0.193L0.608,-0.183C0.608,-0.145 0.599,-0.112 0.581,-0.085C0.562,-0.057 0.537,-0.036 0.505,-0.021C0.474,-0.007 0.438,-0 0.397,-0L0.047,-0ZM0.229,-0.076L0.388,-0.076C0.432,-0.076 0.466,-0.086 0.489,-0.107C0.512,-0.128 0.524,-0.156 0.524,-0.191L0.524,-0.2C0.524,-0.235 0.512,-0.263 0.489,-0.284C0.466,-0.305 0.432,-0.315 0.388,-0.315L0.229,-0.315L0.229,-0.076ZM0.229,-0.391L0.391,-0.391C0.431,-0.391 0.463,-0.401 0.487,-0.422C0.511,-0.442 0.523,-0.469 0.523,-0.502L0.523,-0.512C0.523,-0.546 0.511,-0.573 0.488,-0.594C0.464,-0.614 0.432,-0.624 0.391,-0.624L0.229,-0.624L0.229,-0.391Z" style="fill:white;fill-rule:nonzero;"/></g><g transform="matrix(112,0,0,112,829.626,760.815)"><path d="M0.313,0.014C0.262,0.014 0.217,0.005 0.177,-0.013C0.137,-0.031 0.106,-0.058 0.083,-0.095C0.059,-0.131 0.048,-0.176 0.048,-0.231L0.048,-0.252L0.131,-0.252L0.131,-0.231C0.131,-0.173 0.148,-0.13 0.182,-0.102C0.216,-0.073 0.26,-0.059 0.313,-0.059C0.368,-0.059 0.409,-0.071 0.438,-0.096C0.467,-0.121 0.481,-0.152 0.481,-0.189C0.481,-0.215 0.474,-0.236 0.462,-0.251C0.449,-0.266 0.43,-0.279 0.407,-0.289C0.384,-0.298 0.356,-0.307 0.325,-0.314L0.273,-0.327C0.232,-0.338 0.196,-0.351 0.165,-0.366C0.134,-0.381 0.109,-0.402 0.092,-0.427C0.074,-0.452 0.065,-0.484 0.065,-0.523C0.065,-0.562 0.075,-0.596 0.095,-0.625C0.114,-0.654 0.142,-0.676 0.178,-0.691C0.213,-0.706 0.254,-0.714 0.301,-0.714C0.348,-0.714 0.391,-0.706 0.429,-0.69C0.466,-0.673 0.496,-0.649 0.518,-0.618C0.539,-0.586 0.55,-0.546 0.55,-0.498L0.55,-0.456L0.467,-0.456L0.467,-0.498C0.467,-0.532 0.46,-0.559 0.446,-0.58C0.431,-0.601 0.411,-0.616 0.387,-0.626C0.362,-0.636 0.333,-0.641 0.301,-0.641C0.255,-0.641 0.218,-0.631 0.19,-0.611C0.162,-0.59 0.148,-0.561 0.148,-0.524C0.148,-0.499 0.154,-0.479 0.166,-0.464C0.178,-0.449 0.195,-0.436 0.217,-0.427C0.239,-0.417 0.265,-0.408 0.296,-0.401L0.348,-0.388C0.389,-0.379 0.425,-0.368 0.458,-0.353C0.49,-0.338 0.516,-0.317 0.535,-0.292C0.554,-0.266 0.564,-0.232 0.564,-0.191C0.564,-0.15 0.554,-0.114 0.533,-0.083C0.512,-0.052 0.483,-0.029 0.446,-0.012C0.408,0.005 0.364,0.014 0.313,0.014Z" style="fill:white;fill-rule:nonzero;"/></g><g transform="matrix(112,0,0,112,285.25,872.815)"><path d="M0.08,-0L0.08,-0.7L0.348,-0.7C0.39,-0.7 0.428,-0.692 0.461,-0.676C0.494,-0.659 0.52,-0.636 0.539,-0.606C0.558,-0.576 0.568,-0.54 0.568,-0.497L0.568,-0.484C0.568,-0.442 0.558,-0.406 0.539,-0.376C0.519,-0.345 0.492,-0.322 0.459,-0.306C0.426,-0.29 0.389,-0.282 0.348,-0.282L0.164,-0.282L0.164,-0L0.08,-0ZM0.164,-0.358L0.339,-0.358C0.384,-0.358 0.419,-0.369 0.445,-0.392C0.471,-0.414 0.484,-0.445 0.484,-0.486L0.484,-0.496C0.484,-0.537 0.471,-0.568 0.446,-0.591C0.42,-0.613 0.384,-0.624 0.339,-0.624L0.164,-0.624L0.164,-0.358Z" style="fill:white;fill-rule:nonzero;"/></g><g transform="matrix(112,0,0,112,358.162,872.815)"><path d="M0.08,-0L0.08,-0.7L0.363,-0.7C0.406,-0.7 0.445,-0.693 0.477,-0.678C0.51,-0.663 0.536,-0.641 0.555,-0.614C0.574,-0.586 0.583,-0.553 0.583,-0.514L0.583,-0.503C0.583,-0.457 0.572,-0.421 0.55,-0.394C0.528,-0.367 0.502,-0.349 0.472,-0.34L0.472,-0.326C0.496,-0.325 0.516,-0.318 0.532,-0.303C0.547,-0.288 0.555,-0.265 0.555,-0.235L0.555,-0L0.472,-0L0.472,-0.225C0.472,-0.245 0.467,-0.26 0.456,-0.271C0.445,-0.282 0.428,-0.287 0.406,-0.287L0.164,-0.287L0.164,-0L0.08,-0ZM0.164,-0.363L0.355,-0.363C0.401,-0.363 0.437,-0.374 0.462,-0.397C0.487,-0.419 0.499,-0.45 0.499,-0.49L0.499,-0.497C0.499,-0.537 0.487,-0.568 0.462,-0.591C0.437,-0.613 0.402,-0.624 0.355,-0.624L0.164,-0.624L0.164,-0.363Z" style="fill:white;fill-rule:nonzero;"/></g><g transform="matrix(112,0,0,112,434.434,872.815)"><path d="M0.08,-0L0.08,-0.7L0.511,-0.7L0.511,-0.624L0.164,-0.624L0.164,-0.39L0.483,-0.39L0.483,-0.314L0.164,-0.314L0.164,-0.076L0.516,-0.076L0.516,-0L0.08,-0Z" style="fill:white;fill-rule:nonzero;"/></g><g transform="matrix(112,0,0,112,503.09,872.815)"><path d="M0.313,0.014C0.262,0.014 0.217,0.005 0.177,-0.013C0.137,-0.031 0.106,-0.058 0.083,-0.095C0.059,-0.131 0.048,-0.176 0.048,-0.231L0.048,-0.252L0.131,-0.252L0.131,-0.231C0.131,-0.173 0.148,-0.13 0.182,-0.102C0.216,-0.073 0.26,-0.059 0.313,-0.059C0.368,-0.059 0.409,-0.071 0.438,-0.096C0.467,-0.121 0.481,-0.152 0.481,-0.189C0.481,-0.215 0.474,-0.236 0.462,-0.251C0.449,-0.266 0.43,-0.279 0.407,-0.289C0.384,-0.298 0.356,-0.307 0.325,-0.314L0.273,-0.327C0.232,-0.338 0.196,-0.351 0.165,-0.366C0.134,-0.381 0.109,-0.402 0.092,-0.427C0.074,-0.452 0.065,-0.484 0.065,-0.523C0.065,-0.562 0.075,-0.596 0.095,-0.625C0.114,-0.654 0.142,-0.676 0.178,-0.691C0.213,-0.706 0.254,-0.714 0.301,-0.714C0.348,-0.714 0.391,-0.706 0.429,-0.69C0.466,-0.673 0.496,-0.649 0.518,-0.618C0.539,-0.586 0.55,-0.546 0.55,-0.498L0.55,-0.456L0.467,-0.456L0.467,-0.498C0.467,-0.532 0.46,-0.559 0.446,-0.58C0.431,-0.601 0.411,-0.616 0.387,-0.626C0.362,-0.636 0.333,-0.641 0.301,-0.641C0.255,-0.641 0.218,-0.631 0.19,-0.611C0.162,-0.59 0.148,-0.561 0.148,-0.524C0.148,-0.499 0.154,-0.479 0.166,-0.464C0.178,-0.449 0.195,-0.436 0.217,-0.427C0.239,-0.417 0.265,-0.408 0.296,-0.401L0.348,-0.388C0.389,-0.379 0.425,-0.368 0.458,-0.353C0.49,-0.338 0.516,-0.317 0.535,-0.292C0.554,-0.266 0.564,-0.232 0.564,-0.191C0.564,-0.15 0.554,-0.114 0.533,-0.083C0.512,-0.052 0.483,-0.029 0.446,-0.012C0.408,0.005 0.364,0.014 0.313,0.014Z" style="fill:white;fill-rule:nonzero;"/></g><g transform="matrix(112,0,0,112,577.346,872.815)"><path d="M0.313,0.014C0.262,0.014 0.217,0.005 0.177,-0.013C0.137,-0.031 0.106,-0.058 0.083,-0.095C0.059,-0.131 0.048,-0.176 0.048,-0.231L0.048,-0.252L0.131,-0.252L0.131,-0.231C0.131,-0.173 0.148,-0.13 0.182,-0.102C0.216,-0.073 0.26,-0.059 0.313,-0.059C0.368,-0.059 0.409,-0.071 0.438,-0.096C0.467,-0.121 0.481,-0.152 0.481,-0.189C0.481,-0.215 0.474,-0.236 0.462,-0.251C0.449,-0.266 0.43,-0.279 0.407,-0.289C0.384,-0.298 0.356,-0.307 0.325,-0.314L0.273,-0.327C0.232,-0.338 0.196,-0.351 0.165,-0.366C0.134,-0.381 0.109,-0.402 0.092,-0.427C0.074,-0.452 0.065,-0.484 0.065,-0.523C0.065,-0.562 0.075,-0.596 0.095,-0.625C0.114,-0.654 0.142,-0.676 0.178,-0.691C0.213,-0.706 0.254,-0.714 0.301,-0.714C0.348,-0.714 0.391,-0.706 0.429,-0.69C0.466,-0.673 0.496,-0.649 0.518,-0.618C0.539,-0.586 0.55,-0.546 0.55,-0.498L0.55,-0.456L0.467,-0.456L0.467,-0.498C0.467,-0.532 0.46,-0.559 0.446,-0.58C0.431,-0.601 0.411,-0.616 0.387,-0.626C0.362,-0.636 0.333,-0.641 0.301,-0.641C0.255,-0.641 0.218,-0.631 0.19,-0.611C0.162,-0.59 0.148,-0.561 0.148,-0.524C0.148,-0.499 0.154,-0.479 0.166,-0.464C0.178,-0.449 0.195,-0.436 0.217,-0.427C0.239,-0.417 0.265,-0.408 0.296,-0.401L0.348,-0.388C0.389,-0.379 0.425,-0.368 0.458,-0.353C0.49,-0.338 0.516,-0.317 0.535,-0.292C0.554,-0.266 0.564,-0.232 0.564,-0.191C0.564,-0.15 0.554,-0.114 0.533,-0.083C0.512,-0.052 0.483,-0.029 0.446,-0.012C0.408,0.005 0.364,0.014 0.313,0.014Z" style="fill:white;fill-rule:nonzero;"/></g></g></g></svg>